<svg width="68" height="57" viewBox="0 0 68 57" fill="none" xmlns="http://www.w3.org/2000/svg">
<path d="M17.1982 27.9315H15.2084V29.9104H17.1982V27.9315Z" fill="#686868"/>
<path d="M19.6155 27.9315H17.6256V29.9104H19.6155V27.9315Z" fill="#686868"/>
<path d="M17.1977 30.3811H15.2079V32.36H17.1977V30.3811Z" fill="#686868"/>
<path d="M19.6155 30.3811H17.6256V32.36H19.6155V30.3811Z" fill="#686868"/>
<path d="M52.2192 27.9315H50.2294V29.9104H52.2192V27.9315Z" fill="#686868"/>
<path d="M54.6429 27.9315H52.6531V29.9104H54.6429V27.9315Z" fill="#686868"/>
<path d="M52.2193 30.3811H50.2294V32.36H52.2193V30.3811Z" fill="#686868"/>
<path d="M54.6429 30.3811H52.6531V32.36H54.6429V30.3811Z" fill="#686868"/>
<path d="M33.8496 3.81612V0.599457L0.533813 23.0968L5.81638 22.8518L5.44692 43.7441L33.8496 56.7848V29.9041H30.9458L29.9607 51.1572L8.4285 41.0302L8.18219 21.5626L30.33 6.22702L32.1061 4.99578V5.01512L33.8496 3.81612Z" fill="#F76061"/>
<path d="M33.8497 33.1594H23.7188L21.3141 29.9106H33.8497V33.1594Z" fill="#F76061"/>
<path d="M48.3106 33.1594H37.6416V51.6407L37.3111 51.802L37.3954 55.27L35.1852 56.6495V0L37.6416 1.94032V29.9106H45.8994L48.3106 33.1594Z" fill="#F76061"/>
<path d="M37.6417 51.6407V55.1218L37.4018 55.27H37.3953L37.3112 51.802L37.6417 51.6407Z" fill="#F76061"/>
<path d="M67.846 25.1403H64.7996L37.6415 11.2939V1.94037L67.846 25.1403Z" fill="#F76061"/>
<path d="M67.5546 38.0391L37.4018 55.27H37.3953L37.3112 51.8018L37.6417 51.6407L65.2341 38.0391H67.5546Z" fill="#F76061"/>
<path d="M65.0721 21.8011L58.3572 16.6958V6.47205H65.0721V21.8011Z" fill="#686868"/>
</svg>
